Coordinates
version=1
nRows=28
nColumns=33
inDegrees=yes

Units are S.I. units (second, meters, Newtons, ...)
Angles are in degrees.

endheader
time	ground_thorax_rot_x	ground_thorax_rot_y	ground_thorax_rot_z	ground_thorax_tx	ground_thorax_ty	ground_thorax_tz	clav_prot_r	clav_elev_r	scapula_abduction_r	scapula_elevation_r	scapula_upward_rot_r	scapula_winging_r	shoulder_elv_r	plane_of_elev_r	axial_rot_r	elbow_flexion_r	pro_sup_r	wrist_flex_r	wrist_dev_r	clav_prot_l	clav_elev_l	scapula_abduction_l	scapula_elevation_l	scapula_upward_rot_l	scapula_winging_l	shoulder_elv_l	plane_of_elev_l	axial_rot_l	elbow_flexion_l	pro_sup_l	wrist_flex_l	wrist_dev_l	
4.9200	-40.069045	-6.991616	4.349977	-170.695923	887.961461	-9.033934	9.888280	-45.000000	38.960209	-45.000000	-33.235535	1700.690415	-1907.662910	148.744566	-95.914606	1097.619068	67.533966	17.384472	3.789504	15.309767	38.841283	-40.548669	-45.000000	-43.739689	-273.763477	-2806.412166	21.747716	-38.900275	-346.176149	52.183058	4.563560	-22.218529	
4.9300	-40.122450	-6.750547	4.017648	-168.395334	889.992497	-8.976542	9.798917	-45.000000	39.338446	-45.000000	-32.074451	1700.694121	-1907.505202	148.723124	-96.118750	1097.777498	68.920272	17.297216	3.687971	15.358956	39.007686	-40.807139	-45.000000	-43.166585	-273.568080	-2806.361184	21.890300	-38.444294	-346.198082	52.072639	4.531567	-22.188257	
4.9400	-40.187709	-6.505528	3.685125	-165.964258	891.862052	-8.910419	9.712143	-45.000000	39.710824	-45.000000	-30.881349	1700.704786	-1907.363736	148.700868	-96.315178	1097.932711	70.285300	17.197390	3.588584	15.385007	39.184814	-41.055290	-45.000000	-42.503436	-273.385009	-2806.327241	22.005239	-38.016219	-346.235141	51.832091	4.523700	-22.163402	
4.9500	-40.265376	-6.258992	3.356257	-163.407372	893.548039	-8.835174	9.611774	-45.000000	40.075590	-45.000000	-29.658615	1700.726828	-1907.237303	148.683261	-96.504284	1098.085353	71.617980	17.088782	3.492921	15.414822	39.375958	-41.301821	-45.000000	-41.783971	-273.214603	-2806.312092	22.099481	-37.602248	-346.292695	51.439350	4.542212	-22.143090	
4.9600	-40.353433	-6.024819	3.045767	-160.728064	895.029395	-8.750119	9.514119	-45.000000	40.428678	-45.000000	-28.430230	1700.749297	-1907.126048	148.659940	-96.688459	1098.237824	72.896485	16.967041	3.397676	15.404087	39.557824	-41.543387	-45.000000	-41.048615	-273.072142	-2806.297546	22.166305	-37.184971	-346.361224	50.864981	4.591042	-22.132734	
4.9700	-40.450443	-5.792188	2.743525	-157.929116	896.285605	-8.653589	9.401512	-45.000000	40.772017	-45.000000	-27.187702	1700.783385	-1907.031386	148.639250	-96.873839	1098.386025	74.115218	16.840898	3.307999	15.400563	39.746110	-41.787669	-45.000000	-40.302883	-272.946836	-2806.302276	22.225573	-36.773861	-346.454149	50.079075	4.676758	-22.130364	
4.9800	-40.555669	-5.564267	2.453519	-155.012087	897.297982	-8.542532	9.276983	-45.000000	41.106718	-45.000000	-25.916523	1700.825772	-1906.956322	148.629017	-97.052353	1098.530575	75.277610	16.714639	3.225175	15.415363	39.941121	-42.036219	-45.000000	-39.554552	-272.836516	-2806.333130	22.280656	-36.370629	-346.574527	49.041780	4.802234	-22.133170	
4.9900	-40.666929	-5.342197	2.176437	-151.977987	898.050168	-8.412350	9.132776	-45.000000	41.435051	-45.000000	-24.613075	1700.880558	-1906.900969	148.637587	-97.225956	1098.670740	76.392067	16.594213	3.151540	15.460851	40.149460	-42.288643	-45.000000	-38.799255	-272.743489	-2806.395082	22.329179	-35.981175	-346.726891	47.706295	4.973080	-22.139827	
5.0000	-40.784091	-5.121277	1.906575	-148.827291	898.528758	-8.257411	8.970997	-45.000000	41.755071	-45.000000	-23.270992	1700.944933	-1906.869345	148.664149	-97.388570	1098.809635	77.468444	16.481829	3.086909	15.536634	40.368033	-42.544674	-45.000000	-38.039258	-272.680448	-2806.481904	22.364531	-35.607293	-346.916440	46.004867	5.202063	-22.152915	
5.0100	-40.905391	-4.900843	1.639794	-145.560476	898.723717	-8.071917	8.798578	-45.000000	42.071067	-45.000000	-21.910600	1701.018850	-1906.865427	148.701561	-97.549966	1098.944034	78.507482	16.373395	3.031680	15.622335	40.595315	-42.800748	-45.000000	-37.266958	-272.645186	-2806.596511	22.389615	-35.266445	-347.146116	43.886317	5.503428	-22.173285	
5.0200	-41.031236	-4.679913	1.370793	-142.178132	898.628744	-7.850914	8.619250	-45.000000	42.388611	-45.000000	-20.523805	1701.095594	-1906.896183	148.747929	-97.694778	1099.075174	79.515421	16.265856	2.985687	15.708030	40.827372	-43.059189	-44.999999	-36.489621	-272.638408	-2806.739109	22.404427	-34.959300	-347.422027	41.255926	5.897418	-22.197741	
5.0300	-41.161102	-4.476419	1.109164	-138.681288	898.241613	-7.591290	8.446250	-45.000000	42.711737	-45.000000	-19.168362	1701.179446	-1906.964613	148.792970	-97.850905	1099.198310	80.480299	16.149713	2.949200	15.758663	41.056153	-43.311810	-44.999999	-35.709371	-272.640376	-2806.921852	22.423560	-34.705404	-347.741943	38.126003	6.389705	-22.218044	
5.0400	-41.290625	-4.277278	0.838063	-135.071428	897.564116	-7.292549	8.263700	-45.000000	43.054985	-45.000000	-17.747924	1701.252254	-1907.079886	148.849902	-97.923906	1099.318481	81.444838	16.019807	2.922713	15.773399	41.286979	-43.558686	-44.999998	-34.941039	-272.670962	-2807.136382	22.439087	-34.482671	-348.126994	34.191590	7.038196	-22.226346	
5.0500	-41.419732	-4.101710	0.576677	-131.350958	896.602390	-6.957157	8.097502	-45.000000	43.396799	-45.000000	-16.408530	1701.341238	-1907.230369	148.895083	-98.045205	1099.428475	82.365688	15.885191	2.906430	15.749904	41.509259	-43.794513	-44.999996	-34.169712	-272.713625	-2807.387627	22.448198	-34.351420	-348.547167	29.729412	7.784176	-22.202396	
5.0600	-41.545891	-3.939059	0.318866	-127.523150	895.366091	-6.590412	7.936712	-45.000000	43.730487	-45.000000	-15.128203	1701.450870	-1907.411143	148.937230	-98.220676	1099.530664	83.220129	15.766176	2.901645	15.731693	41.732682	-44.026968	-44.999993	-33.399138	-272.782920	-2807.662802	22.438039	-34.289978	-348.976962	24.952710	8.584313	-22.134820	
5.0700	-41.670796	-3.815975	0.091443	-123.592352	893.868135	-6.199781	7.805729	-45.000000	44.030803	-45.000000	-14.069736	1701.612810	-1907.607809	148.953300	-98.579702	1099.617708	83.925674	15.667929	2.907408	15.699240	41.943741	-44.245924	-44.999987	-32.622713	-272.851142	-2807.970230	22.428780	-34.314894	-349.363811	20.505439	9.327547	-22.016978	
5.0800	-41.787858	-3.698554	-0.132537	-119.563680	892.122975	-5.793975	7.672722	-45.000000	44.308755	-45.000000	-13.070413	1701.803969	-1907.826625	148.970599	-99.004957	1099.694009	84.493996	15.603955	2.924792	15.695158	42.161744	-44.455858	-44.999976	-31.852925	-272.955779	-2808.283445	22.413709	-34.336222	-349.700605	16.457540	10.008926	-21.857722	
5.0900	-41.898916	-3.609849	-0.330247	-115.443183	890.146216	-5.381932	7.554153	-45.000000	44.534765	-45.000000	-12.254719	1702.054521	-1908.057060	148.971942	-99.577414	1099.753393	84.875704	15.574649	2.952102	15.695831	42.372395	-44.638748	-44.999958	-31.080417	-273.076970	-2808.606210	22.413780	-34.354926	-349.960434	13.245941	10.553406	-21.661756	
5.1000	-41.999297	-3.537942	-0.511463	-111.237387	887.952875	-4.972062	7.435339	-45.000000	44.716685	-45.000000	-11.516449	1702.340700	-1908.309721	148.968616	-100.176647	1099.796204	85.098632	15.564204	2.988267	15.680625	42.577843	-44.789771	-44.999924	-30.329615	-273.236176	-2808.923193	22.435100	-34.292918	-350.155024	10.758328	11.002037	-21.448734	
5.1100	-42.090176	-3.498161	-0.663866	-106.953386	885.557105	-4.571763	7.312623	-45.000000	44.844380	-45.000000	-10.898074	1702.679389	-1908.579069	148.961249	-100.803603	1099.823308	85.171515	15.564870	3.031441	15.621768	42.770930	-44.892233	-44.999865	-29.598328	-273.422068	-2809.244620	22.495076	-34.143403	-350.304655	8.955669	11.363028	-21.229676	
5.1200	-42.166725	-3.450902	-0.815843	-102.598468	882.971076	-4.187276	7.153426	-45.000000	44.938212	-45.000000	-10.231933	1703.038334	-1908.877801	148.977135	-101.341509	1099.837975	85.149800	15.586669	3.083020	15.575693	42.964129	-44.957107	-44.999757	-28.911662	-273.683590	-2809.540198	22.574862	-33.846399	-350.446751	7.407332	11.708170	-21.014479	
5.1300	-42.231469	-3.403579	-0.957916	-98.180477	880.205360	-3.823645	6.963309	-45.000000	44.984654	-45.000000	-9.605896	1703.440878	-1909.195337	149.008849	-101.887263	1099.837645	85.005905	15.643036	3.143187	15.562917	43.153888	-44.988023	-44.999566	-28.253952	-274.008670	-2809.818792	22.666835	-33.448270	-350.585684	6.160057	12.010620	-20.801084	
5.1400	-42.282040	-3.345987	-1.094377	-93.707775	877.268341	-3.484724	6.750019	-45.000000	45.000000	-45.000000	-9.010477	1703.862155	-1909.537568	149.044566	-102.451894	1099.813463	84.703235	15.726204	3.212687	15.588880	43.337075	-45.000000	-44.999222	-27.644909	-274.403197	-2810.073358	22.765479	-32.937498	-350.713797	5.232000	12.277925	-20.595740	
5.1500	-42.320504	-3.288180	-1.221544	-89.189763	874.166787	-3.173027	6.521952	-45.000000	45.000000	-45.000000	-8.463337	1704.302488	-1909.900212	149.084680	-103.061761	1099.765838	84.206525	15.837592	3.292897	15.638247	43.517162	-45.000000	-44.998606	-27.078294	-274.838047	-2810.326887	22.877053	-32.340873	-350.839025	4.645846	12.500868	-20.403709	
5.1600	-42.345980	-3.221357	-1.345880	-84.636799	870.906152	-2.889429	6.289049	-45.000000	45.000000	-45.000000	-7.939261	1704.739974	-1910.288003	149.121780	-103.706746	1099.687665	83.475672	15.976523	3.387046	15.721915	43.690656	-45.000000	-44.997502	-26.575677	-275.315389	-2810.571473	23.001284	-31.645251	-350.960684	4.388886	12.686463	-20.227407	
5.1700	-42.360200	-3.166394	-1.451781	-80.060543	867.491873	-2.632794	6.071969	-45.000000	45.000000	-45.000000	-7.485144	1705.185877	-1910.690435	149.153974	-104.412152	1099.575992	82.477581	16.140865	3.499411	15.803329	43.855735	-45.000000	-44.995528	-26.131400	-275.803117	-2810.830870	23.144223	-30.897973	-351.085344	4.452747	12.827195	-20.069376	
5.1800	-42.363167	-3.140966	-1.523850	-75.473600	863.930523	-2.399566	5.901560	-45.000000	45.000000	-45.000000	-7.166374	1705.638879	-1911.103093	149.158616	-105.177439	1099.423250	81.192221	16.314733	3.634252	15.842971	43.994305	-45.000000	-44.991984	-25.782715	-276.282030	-2811.109791	23.324076	-30.123677	-351.215132	4.808944	12.931238	-19.928038	
5.1900	-42.356629	-3.124561	-1.580614	-70.889479	860.231589	-2.183588	5.746706	-45.000000	45.000000	-45.000000	-6.924769	1706.105682	-1911.523852	149.159889	-105.996146	1099.227229	79.573118	16.514231	3.798899	15.875931	44.126296	-45.000000	-44.985659	-25.478615	-276.764617	-2811.402134	23.515402	-29.321935	-351.356075	5.420746	12.996456	-19.801113	
